<svg xmlns="http://www.w3.org/2000/svg" viewBox="0 0 128 128" fill="none">
  <!-- 背景圆形 -->
  <circle cx="64" cy="64" r="60" fill="#8B5CF6"/>
  
  <!-- 工具箱图标 -->
  <g transform="translate(32, 32)">
    <!-- 工具箱主体 -->
    <rect x="8" y="24" width="48" height="32" rx="4" fill="#F3F4F6" stroke="#1F2937" stroke-width="2"/>
    
    <!-- 工具箱盖子 -->
    <rect x="4" y="16" width="56" height="12" rx="4" fill="#E5E7EB" stroke="#1F2937" stroke-width="2"/>
    
    <!-- 手柄 -->
    <path d="M 28 16 Q 32 8 36 16" stroke="#1F2937" stroke-width="2" fill="none" stroke-linecap="round"/>
    
    <!-- 工具图标 - 扳手 -->
    <g transform="translate(18, 34)">
      <path d="M 2 4 L 6 8 L 4 10 L 0 6 Z M 6 8 L 12 14 C 13 15 13 16 12 17 C 11 18 10 18 9 17 L 3 11" 
            stroke="#8B5CF6" stroke-width="1.5" fill="none" stroke-linecap="round" stroke-linejoin="round"/>
    </g>
    
    <!-- 工具图标 - 螺丝刀 -->
    <g transform="translate(34, 32)">
      <line x1="8" y1="2" x2="4" y2="6" stroke="#8B5CF6" stroke-width="1.5" stroke-linecap="round"/>
      <line x1="4" y1="6" x2="0" y2="10" stroke="#6366F1" stroke-width="2" stroke-linecap="round"/>
    </g>
  </g>
  
  <!-- 小装饰点 -->
  <circle cx="24" cy="24" r="3" fill="#FCD34D" opacity="0.8"/>
  <circle cx="104" cy="104" r="3" fill="#FCD34D" opacity="0.8"/>
</svg>
